<svg xmlns="http://www.w3.org/2000/svg" width="115" height="88" viewBox="0 0 115 88">
  <defs>
    <linearGradient id="icon-gears-a" x1=".797%" x2="99.712%" y1="42.82%" y2="57.164%">
      <stop offset="0%" stop-color="#1C79C4"/>
      <stop offset="51%" stop-color="#0389FF"/>
      <stop offset="100%" stop-color="#0DD7FF"/>
    </linearGradient>
  </defs>
  <g fill="none" fill-rule="evenodd" transform="translate(-1 -1)">
    <path stroke="#0B84EE" stroke-linecap="round" d="M73.9895223,36.6713586 C74.1038056,37.6887081 74.1487917,38.683528 74.1729196,39.6907862 L79.1286122,42.0034655 C79.5753373,42.2159706 79.7703828,42.9616748 79.5940322,43.7692181 L76.5853903,56.6098827 C76.4090398,57.417426 75.8969777,58.0101173 75.3869874,58.0268972 L69.8571654,58.1318018 C68.9036281,59.9455473 67.8498515,61.6594353 66.6615324,63.1662159 L66.7596577,71.5682086 C66.7777536,72.3236522 66.4002341,73.1234509 65.8787788,73.4344056 L57.5354942,78.409681 C57.0140389,78.7206357 56.5155135,78.4432409 56.3722683,77.7624264 L54.688919,70.3057361 C53.3325363,70.3164145 52.0535544,70.0255257 50.8344765,69.4754297 L45.9769091,75.564743 C45.5449186,76.0777595 44.9548567,76.1742143 44.6306102,75.6651876 L39.2959675,67.7997983 C38.971721,67.2907716 38.9852576,66.4206855 39.3311446,65.7355292 L43.1776172,58.1739343 C42.9866236,57.2661817 42.813127,56.3160688 42.702205,55.3286414 C42.591283,54.341214 42.5429356,53.316472 42.5188077,52.3092138 L37.5631151,49.9965345 C37.11639,49.7840294 36.9004863,49.0507634 37.0976951,48.2307819 L40.106337,35.3901173 C40.2826875,34.582574 40.7947496,33.9898827 41.3047399,33.9731028 L46.8345619,33.8681982 C47.7880992,32.0544527 48.8418758,30.3405647 50.0301949,28.8337841 L49.9320696,20.4317914 C49.9139737,19.6763478 50.2914932,18.8765491 50.8129485,18.5655944 L59.1562331,13.590319 C59.6776884,13.2793643 60.1762138,13.5567591 60.319459,14.2375736 L62.0028083,21.6942639 C63.359191,21.6835855 64.6381729,21.9744743 65.8572508,22.5245703 L70.7148182,16.435257 C71.1468087,15.9222405 71.7368706,15.8257857 72.0611171,16.3348124 L77.3957598,24.2002017 C77.7200063,24.7092284 77.7064696,25.5793145 77.3605827,26.2644708 L73.5141101,33.8260657 C73.7051037,34.7338183 73.875239,35.6540091 73.9895223,36.6713586 Z M51.5200993,49.5180721 C52.1545453,55.1659085 55.9872899,57.8504517 60.0644344,55.5027225 C64.141579,53.1549934 66.9421163,46.6508286 66.3076703,41.0029922 C65.6732244,35.3551558 61.8404797,32.6706126 57.7633352,35.0183418 C53.6861906,37.3660709 50.8856534,43.8702357 51.5200993,49.5180721 Z"/>
    <path stroke="url(#icon-gears-a)" stroke-linecap="round" d="M94.6169408,62.0077985 C96.1223681,64.9105282 96.1783487,66.9443248 96.1783487,66.9443248 C96.1783487,66.9443248 97.2783105,67.0703037 99.4782342,67.3222616 C99.7513977,67.4458798 99.7020405,67.917331 99.7628292,68.3494331 L99.8536585,72.5842096 C99.7458237,73.0539727 99.432708,73.3987524 99.1208592,73.4085136 L96.2107617,74.4335391 C96.3253089,76.890012 95.6713067,77.5276221 94.5960542,79.5991774 L95.6919924,83.9586624 C95.7030577,84.3981181 95.472212,84.8633761 95.1533526,85.0442644 L90.9947215,87.3911058 C90.675862,87.5719941 90.3710238,87.4106283 90.2834322,87.0145857 L88.5043395,83.8245239 C87.8084857,84.0696249 85.2001299,84.5013873 84.4546882,84.1813862 L81.5733939,87.2579701 C81.3092404,87.5564015 80.9484293,87.612511 80.7501591,87.3164006 L76.8290222,84.1644523 C76.6307519,83.8683419 76.6390293,83.3621964 76.8505323,82.9636281 C78.1283478,80.0009516 78.7672556,78.5196133 78.7672556,78.5196133 C78.7672556,78.5196133 77.3717649,76.0864282 77.0953279,74.360099 L73.2562487,71.7784223 C72.9830852,71.6548041 72.8510645,71.2282494 72.9716537,70.7512508 L73.3145013,66.7942193 C73.4223361,66.3244562 73.7354518,65.9796765 74.0473006,65.9699153 L78.4586782,64.4160929 C78.9656488,63.1896339 79.4413676,62.2086644 80.1492713,61.6095699 L79.4838611,56.7853434 C79.4727958,56.3458876 79.7036414,55.8806296 80.0225009,55.6997414 L85.1242521,52.80553 C85.4431116,52.6246417 85.7479499,52.7860075 85.8355414,53.1820501 L86.8648758,57.5197474 C87.6942766,57.5135355 88.4763484,57.6827511 89.2217901,58.0027522 L92.1920952,54.460484 C92.4562487,54.1620526 92.8170597,54.1059431 93.0153299,54.4020535 L96.9904917,56.4082521 C97.188762,56.7043625 97.1804846,57.210508 96.9689817,57.6090763 L94.6169408,62.0077985 Z M82.8429793,74.8959791 C84.1214953,77.9472253 86.8048018,78.8023825 88.8248728,76.8023805 C90.8449438,74.8023784 91.4481777,70.693332 90.1696618,67.6420858 C88.8911458,64.5908396 86.2078393,63.7356824 84.1877683,65.7356844 C82.1676973,67.7356864 81.5644634,71.8447329 82.8429793,74.8959791 Z" transform="rotate(20 86.39 70.122)"/>
    <circle cx="93.683" cy="26.366" r="2.805" fill="#0DD7FF" fill-rule="nonzero" opacity=".7" transform="rotate(-83.27 93.683 26.366)"/>
    <circle cx="109.39" cy="3.927" r="2.805" fill="#0DD7FF" fill-rule="nonzero" opacity=".7" transform="rotate(-83.27 109.39 3.927)"/>
    <circle cx="112.756" cy="20.756" r="2.805" fill="#0DD7FF" fill-rule="nonzero" opacity=".7" transform="rotate(-83.27 112.756 20.756)"/>
    <circle cx="28.61" cy="58.902" r="2.805" fill="#0DD7FF" fill-rule="nonzero" opacity=".7" transform="rotate(-67.22 28.61 58.902)"/>
    <circle cx="23" cy="72.366" r="2.805" fill="#0DD7FF" fill-rule="nonzero" opacity=".7" transform="rotate(-67.22 23 72.366)"/>
    <circle cx="17.39" cy="51.049" r="2.805" fill="#0DD7FF" fill-rule="nonzero" opacity=".7" transform="rotate(-67.22 17.39 51.049)"/>
    <circle cx="3.927" cy="58.902" r="2.805" fill="#0DD7FF" fill-rule="nonzero" opacity=".7" transform="rotate(-67.22 3.927 58.902)"/>
  </g>
</svg>
