<svg xmlns="http://www.w3.org/2000/svg" width="188" height="20" viewBox="0 0 188 20">
  <g fill="#292828">
    <path d="M11.9454733 18.6140351C11.840535 18.877193 11.6831276 19.0877193 11.4907407 19.2807018 11.2983539 19.4736842 11.0884774 19.6140351 10.8261317 19.7192982 10.5812757 19.8245614 10.3014403 19.877193 10.0041152 19.877193L2.23868313 19.877193C1.94135802 19.877193 1.66152263 19.8245614 1.41666667 19.7017544 1.15432099 19.5964912.926954733 19.4385965.734567901 19.2280702.54218107 19.0350877.384773663 18.8070175.279835391 18.5438596.174897119 18.2807018.104938272 18 .104938272 17.7192982L.104938272 12.9122807 3.91769547 12.9122807 3.91769547 16.6315789 8.18518519 16.6315789 8.18518519 11.1929825.104938272 11.1929825.104938272 2.1754386C.104938272 1.89473684.157407407 1.61403509.279835391 1.36842105.384773663 1.10526316.54218107.894736842.734567901.701754386.926954733.50877193 1.13683128.350877193 1.39917695.245614035 1.64403292.140350877 1.92386831.0701754386 2.22119342.0701754386L10.0041152.0701754386C10.3014403.0701754386 10.563786.122807018 10.8261317.228070175 11.0884774.333333333 11.2983539.49122807 11.5082305.666666667 11.7006173.859649123 11.8580247 1.07017544 11.962963 1.31578947 12.0679012 1.56140351 12.1378601 1.84210526 12.1378601 2.14035088L12.1378601 6.10526316 8.2026749 6.10526316 8.2026749 3.36842105 3.91769547 3.36842105 3.91769547 7.89473684 12.1028807 7.89473684 12.1028807 17.8070175C12.1028807 18.0877193 12.0504115 18.3508772 11.9454733 18.6140351zM28.2283951 9.03508772C28.2283951 9.33333333 28.1759259 9.61403509 28.0709877 9.85964912 27.9660494 10.122807 27.8261317 10.3508772 27.6337449 10.5438596 27.441358 10.7368421 27.2139918 10.8947368 26.9516461 11.0175439 26.6893004 11.122807 26.409465 11.1929825 26.1296296 11.1929825L19.9907407 11.1929825 19.9907407 16.6315789 21.4423868 16.6315789 21.4423868 19.877193 14.56893 19.877193 14.56893 16.6315789 16.0730453 16.6315789 16.0730453 3.36842105 14.5514403 3.36842105 14.5514403.0701754386 26.1296296.0701754386C26.4269547.0701754386 26.7067901.122807018 26.9516461.245614035 27.2139918.350877193 27.441358.50877193 27.6337449.701754386 27.8261317.894736842 27.9660494 1.10526316 28.0709877 1.36842105 28.1759259 1.61403509 28.2283951 1.89473684 28.2283951 2.19298246L28.2283951 9.03508772zM24.3981481 3.36842105L19.9907407 3.36842105 19.9907407 7.89473684 24.3981481 7.89473684 24.3981481 3.36842105z"/>
    <polygon points="30.31 19.877 30.31 16.632 31.779 16.632 31.779 3.368 30.31 3.368 30.31 .07 37.078 .07 37.078 3.368 35.609 3.368 35.609 16.632 37.078 16.632 37.078 19.877"/>
    <polygon points="39.352 19.877 39.352 16.632 40.769 16.632 40.769 3.368 39.352 3.368 39.352 .07 52.854 .07 52.854 6.105 49.059 6.105 49.059 3.368 44.581 3.368 44.581 7.895 50.545 7.895 50.545 11.193 44.564 11.193 44.564 16.632 49.041 16.632 49.041 12.912 52.836 12.912 52.836 19.877"/>
    <path d="M57.436214,19.877193 C57.1563786,19.877193 56.8765432,19.8245614 56.6141975,19.7192982 C56.3518519,19.6140351 56.1244856,19.4561404 55.9320988,19.2807018 C55.7397119,19.0877193 55.5823045,18.877193 55.4598765,18.6315789 C55.3374486,18.3859649 55.2849794,18.1052632 55.2849794,17.8070175 L55.2849794,2.19298246 C55.2849794,1.89473684 55.3374486,1.61403509 55.4423868,1.36842105 C55.5473251,1.10526316 55.7047325,0.877192982 55.8971193,0.684210526 C56.0895062,0.49122807 56.3168724,0.333333333 56.5617284,0.228070175 C56.8240741,0.122807018 57.0864198,0.0526315789 57.3837449,0.0526315789 L65.1841564,0.0526315789 C65.4814815,0.0526315789 65.7438272,0.105263158 66.0061728,0.228070175 C66.2510288,0.333333333 66.4783951,0.49122807 66.6707819,0.684210526 C66.8631687,0.877192982 67.0205761,1.10526316 67.1255144,1.36842105 C67.2304527,1.63157895 67.3004115,1.9122807 67.3004115,2.19298246 L67.3004115,6.10526316 L63.3127572,6.10526316 L63.3127572,3.36842105 L59.0452675,3.36842105 L59.0452675,16.6315789 L63.4526749,16.6315789 L63.4526749,11.1929825 L60.3045267,11.1929825 L60.3045267,7.89473684 L67.3353909,7.89473684 L67.3353909,19.877193 L57.436214,19.877193 Z"/>
    <polygon points="69.679 19.877 69.679 16.632 71.096 16.632 71.096 3.368 69.679 3.368 69.679 .07 83.181 .07 83.181 6.105 79.386 6.105 79.386 3.368 74.908 3.368 74.908 7.895 80.89 7.895 80.89 11.193 74.908 11.193 74.908 16.632 79.386 16.632 79.386 12.912 83.181 12.912 83.181 19.877"/>
    <polygon points="85.56 19.877 85.56 16.632 87.064 16.632 87.064 3.368 85.595 3.368 85.595 .07 92.591 .07 92.591 3.368 90.964 3.368 90.964 16.632 95.371 16.632 95.371 12.912 99.132 12.912 99.132 19.877"/>
    <g transform="translate(110)">
      <path d="M13.5069444 17.7894737C13.5069444 18.0701754 13.4548611 18.3508772 13.3506944 18.5964912 13.2465278 18.8596491 13.1076389 19.0701754 12.9166667 19.2631579 12.7256944 19.4561404 12.5173611 19.5964912 12.2569444 19.7017544 12.0138889 19.8070175 11.7361111 19.8596491 11.4409722 19.8596491L.121527778 19.8596491.121527778 16.6140351 1.71875 16.6140351 1.71875 3.36842105.121527778 3.36842105.121527778.0701754386 11.3368056.0701754386C11.6145833.0701754386 11.8923611.122807018 12.1527778.245614035 12.4131944.368421053 12.6388889.526315789 12.8472222.719298246 13.0381944.912280702 13.1944444 1.14035088 13.3159722 1.40350877 13.4375 1.66666667 13.4895833 1.94736842 13.4895833 2.22807018L13.4895833 17.7894737 13.5069444 17.7894737zM9.6875 3.36842105L5.48611111 3.36842105 5.48611111 16.6315789 9.6875 16.6315789 9.6875 3.36842105zM26.5277778 19.877193L26.5277778 16.6315789 28.0729167 16.6315789 27.5 14.3508772 22.4131944 14.3508772 21.8923611 16.6315789 23.3680556 16.6315789 23.3680556 19.877193 16.5625 19.877193 16.5625 16.6315789 17.8298611 16.6315789 22.3090278.0701754386 27.6909722.0701754386 32.0486111 16.6315789 33.3159722 16.6315789 33.3159722 19.877193 26.5277778 19.877193zM24.9652778 3.35087719L23.0729167 11.122807 26.9097222 11.122807 24.9652778 3.35087719z"/>
    </g>
    <g transform="translate(146.667)">
      <polygon points=".106 19.877 .106 16.632 1.596 16.632 1.596 3.368 .106 3.368 .106 .07 6.968 .07 6.968 3.368 5.479 3.368 5.479 16.632 6.968 16.632 6.968 19.877"/>
      <polygon points="11.117 19.877 11.117 16.632 12.642 16.632 12.642 3.368 11.152 3.368 11.152 .07 18.245 .07 18.245 3.368 16.596 3.368 16.596 16.632 21.064 16.632 21.064 12.912 24.876 12.912 24.876 19.877"/>
    </g>
    <polygon points="186.166 3.313 181.316 12.613 181.316 16.723 182.875 16.723 182.875 20 175.824 20 175.824 16.723 177.47 16.723 177.47 12.578 172.931 3.295 171.667 3.295 171.667 0 178.769 0 178.769 3.313 177.141 3.313 179.566 8.822 181.957 3.313 180.398 3.313 180.398 0 187.5 0 187.5 3.313"/>
  </g>
</svg>
