<svg xmlns="http://www.w3.org/2000/svg" width="67" height="34" viewBox="0 0 67 34">
  <g fill="none">
    <path fill="#FEFEFE" d="M51.1445932,17.9493069 L50.496883,18.2455446 L50.2899756,18.3353135 C50.0021044,18.469967 49.7052372,18.6046205 49.403872,18.7706931 C49.0665229,18.9592079 48.8011416,19.1656766 48.5672463,19.3541914 C48.4997765,19.3990759 48.4323066,19.4439604 48.3648368,19.5023102 C48.0184918,19.7626403 47.4652393,20.2429043 47.1368862,20.6019802 C47.1233922,20.6019802 47.1188942,20.6154455 47.1098982,20.6244224 C47.1188942,20.4448845 47.1233922,20.2518812 47.1188942,20.0409241 L47.0829103,17.8730033 C47.0829103,17.6710231 47.0739143,17.4466007 47.0649184,17.2356436 C47.0559224,17.0246865 47.0469264,16.8047525 47.0469264,16.629703 C47.0469264,16.4815842 47.0559224,16.2975578 47.0649184,16.100066 C47.0739143,15.8756436 47.0874083,15.6422442 47.0874083,15.4088449 L47.0874083,14.9151155 L47.0964043,14.349571 C47.0964043,13.9725413 47.0739143,12.6888449 47.0649184,12.3163036 C47.0649184,12.0918812 47.0469264,11.8091089 47.0379304,11.5442904 L47.0199385,11.0685149 L46.9884526,10.4580858 C46.9749586,10.2965017 46.9659626,10.1438944 46.9614646,9.97782178 L46.9074888,9.08013201 C46.8894968,8.76594059 46.8625089,8.45174917 46.8625089,8.28567657 C46.8625089,8.1420462 46.844517,7.89069307 46.826525,7.59894389 L46.7815451,6.90772277 L46.7815451,6.75511551 L47.0964043,6.71920792 L47.4382513,6.68778878 C47.5282111,6.68778878 47.6046769,6.68778878 47.6856407,6.67881188 C48.0364837,6.67881188 48.5177684,6.66983498 49.0080491,6.45438944 C48.9090933,7.03788779 48.7741537,7.93557756 48.7381698,8.21834983 C48.6931899,8.52356436 48.6931899,8.80184818 48.7021859,9.02627063 L48.7021859,9.34943894 L48.657206,9.70851485 C48.6212221,9.95986799 48.5897362,10.220198 48.5672463,10.4805281 L48.5132704,10.8844884 C48.4817845,11.1089109 48.4458006,11.3512871 48.4233107,11.6116172 C48.4098167,11.8988779 48.3513429,13.559604 48.3963227,14.0443564 C48.4547966,14.69967 48.6212221,15.2831683 48.8731094,15.7320132 C49.0710209,16.0910891 49.3229082,16.4950495 49.6377673,16.8541254 C49.9976064,17.2446205 50.3304575,17.4735314 50.7172844,17.6889769 C50.8432281,17.7607921 50.9961596,17.8415842 51.1670832,17.9133993 L51.1221033,17.9358416 L51.1445932,17.9493069 Z M40.4303865,9.58732673 C40.4303865,9.76686469 40.4078965,9.98231023 40.3854066,10.1932673 L40.3404267,10.7588119 C40.3314307,10.9383498 40.2819529,11.490429 40.241471,11.9347855 L40.1650052,12.8414521 L40.1290213,13.4249505 L40.0930374,13.9635644 C40.0795434,14.1879868 40.0750454,14.4124092 40.0750454,14.6009241 C40.0750454,14.7580198 40.0750454,14.9151155 40.0570535,15.049769 L40.0120736,15.5434983 C39.9760897,15.7813861 39.9446038,16.0282508 39.9311098,16.2616502 L39.8186601,17.5408581 C39.7287004,18.5866667 39.6702265,19.2330033 39.6612306,19.4574257 C39.6522346,19.6728713 39.6612306,20.0543894 39.6612306,20.6513531 C39.6612306,21.010429 39.6747245,21.4592739 39.6612306,21.5939274 C39.6612306,21.7869307 39.6612306,21.9978878 39.6522346,22.2133333 C39.6522346,22.4063366 39.6432386,22.590363 39.6387406,22.7609241 C39.6297446,22.9314851 39.5937607,23.4611221 39.5577768,23.8830363 L39.485809,24.9378218 C39.485809,24.9827063 39.485809,25.050033 39.4768131,25.1308251 C39.4543231,24.9512871 39.4318332,24.7627723 39.4003473,24.5922112 L39.4003473,24.5607921 C39.3418734,24.1792739 39.2204278,23.869571 39.116974,23.6182178 C39.0809901,23.5284488 39.0360103,23.4207261 39.0270143,23.3668647 C38.9370545,22.9988119 38.8291028,22.6217822 38.7031592,22.2088449 C38.5997055,21.8766997 38.4872558,21.5669967 38.3748061,21.2662706 L38.3073362,21.0957096 C38.2038825,20.8174257 38.0959308,20.5570957 37.9924771,20.2967657 C37.9474972,20.2069967 37.9115133,20.1172277 37.8755294,20.0274587 C37.7765737,19.8030363 37.1693454,18.339802 36.9894258,17.94033 L36.5171371,16.9259406 L36.0403504,15.9250165 C36.0088645,15.8621782 35.9683826,15.7365017 35.9323987,15.6108251 C35.8649289,15.4088449 35.7884631,15.1619802 35.6625195,14.8926733 L35.446616,14.4438284 L35.1902307,13.9052145 C35.100271,13.7122112 35.0013153,13.5281848 34.9203515,13.3666007 C34.8303917,13.2184818 34.7584239,13.0748515 34.6954521,12.9446865 L34.5155326,12.4958416 C34.4570587,12.3252805 34.380593,12.1367657 34.3041272,11.9392739 C34.2366573,11.7911551 34.1691875,11.6250825 34.1062157,11.4455446 C34.1152117,11.4455446 34.1197097,11.4545215 34.1242077,11.4590099 C34.4480628,11.669967 34.8438857,11.930297 35.3836442,11.9706931 L35.5815557,11.9706931 C36.4946472,11.9706931 37.1108715,11.5083828 37.308783,11.3557756 C37.8170556,10.969769 38.1858906,10.440132 38.3748061,9.82072607 L38.41079,9.7309571 C38.5142437,9.39881188 38.6581793,8.94547855 38.6581793,8.42930693 L38.6581793,7.91313531 L38.6671753,7.36105611 C38.6671753,7.19049505 38.6581793,7.02442244 38.6446853,6.86732673 C38.9145646,6.94363036 39.2114318,6.9840264 39.5352869,6.9840264 C39.7331984,6.9840264 39.9401058,6.97056106 40.2009891,6.94811881 L40.4258885,6.92567657 C40.4258885,7.03788779 40.4258885,7.16356436 40.4348844,7.29821782 C40.4348844,7.370033 40.4348844,7.45082508 40.4438804,7.52264026 C40.4528764,7.81438944 40.4438804,9.25966997 40.4303865,9.60079208 L40.4303865,9.58732673 Z M67,14.0757756 L66.8110845,13.0165017 C66.6041771,12.4509571 66.3253018,11.9841584 65.9699608,11.6071287 C65.4526922,11.0550495 64.8319699,10.7767657 64.1257858,10.7767657 C64.0088382,10.7767657 63.8918905,10.7857426 63.7659468,10.7992079 C63.1182366,10.88 62.587474,11.1717492 62.1916511,11.4141254 L61.9802457,11.5487789 C61.7463503,11.6834323 61.4494831,11.8539934 61.1526159,12.1008581 L60.9726964,12.2444884 C60.8287608,12.3611881 60.6218534,12.5721452 60.4779178,12.6933333 C60.4914117,12.6170297 60.5678775,12.4464686 60.5858695,12.3611881 L60.765789,11.5173597 L60.8377568,11.189703 C60.8962306,10.9069307 60.9412105,10.6510891 60.9726964,10.4535974 L61.0446642,10.0720792 C61.0716522,9.96884488 61.0896441,9.84765677 61.12113,9.7130033 L61.2650656,9.05768977 L61.4000053,8.41584158 L61.489965,7.9669967 C61.5799248,7.62138614 61.6518926,7.23986799 61.7283584,6.83590759 C61.7958282,6.49478548 61.8318121,6.15366337 61.863298,5.85742574 L61.8857879,5.6419802 C61.9397638,5.20660066 61.9577558,4.77570957 61.9532578,4.36277228 L61.9532578,4.12937294 C61.9532578,3.72541254 61.9532578,3.21821782 61.7463503,2.71551155 C61.3865113,1.84475248 60.6218534,1.23432343 59.677276,1.09966997 C59.303943,1.04132013 59.0025778,1.00990099 58.7326985,1.00990099 C58.4763132,1.00990099 58.2379199,1.03683168 58.0220165,1.08620462 C57.1808928,1.26574257 56.6861141,1.82231023 56.4252308,2.11854785 L56.348765,2.19933993 L56.2453113,2.29808581 C56.1778415,2.36092409 56.0923797,2.43273927 56.006918,2.53148515 C55.9529421,2.22627063 55.8269985,1.9390099 55.6020991,1.67867987 C55.1298104,1.1580198 54.4101323,0.825874587 53.5780046,0.736105611 C53.4880448,0.727128713 53.3890891,0.722640264 53.2946314,0.722640264 C52.7683668,0.722640264 52.318568,0.870759076 51.9902149,0.978481848 L51.8552753,1.02336634 L51.7878055,1.04132013 C51.4144725,1.1580198 50.852224,1.33306931 50.4069233,1.76844884 C50.2944736,1.5440264 50.1640319,1.3420462 50.0155983,1.17148515 C49.40837,0.471287129 48.4233107,0.318679868 47.8880501,0.282772277 C47.8115843,0.269306931 47.7306205,0.269306931 47.6451588,0.269306931 C47.3572876,0.269306931 47.1054003,0.296237624 46.8984928,0.314191419 L46.7050793,0.341122112 C46.5611437,0.341122112 46.3902202,0.323168317 46.2013047,0.305214521 C45.9764053,0.282772277 45.724518,0.260330033 45.4591367,0.251353135 C45.0408239,0.251353135 44.627009,0.237887789 44.2131941,0.23339934 C44.1592183,0.224422442 44.1052424,0.224422442 44.0512666,0.224422442 C43.8713471,0.224422442 43.6914276,0.224422442 43.520504,0.23339934 L43.0707053,0.242376238 L42.8907857,0.242376238 C42.6209065,0.242376238 42.3870111,0.264818482 42.1711077,0.287260726 C42.0091802,0.300726073 41.8562486,0.314191419 41.7213089,0.314191419 L41.707815,0.314191419 L41.4109478,0.291749175 C41.2040403,0.296237624 40.947655,0.264818482 40.6642818,0.264818482 L40.4528764,0.264818482 C40.0345635,0.264818482 39.6522346,0.291749175 39.3103875,0.354587459 C38.9595445,0.412937294 37.8980194,0.596963696 37.3402689,1.59339934 L37.304285,1.65174917 C37.2413132,1.7549835 37.1603494,1.88963696 37.0793856,2.05570957 C36.7420365,1.71458746 36.3776995,1.43630363 35.9818766,1.22534653 C35.6490255,1.04580858 35.3161744,0.947062706 35.0552911,0.866270627 C34.9473394,0.839339934 34.8438857,0.812409241 34.7629219,0.77650165 C34.5650105,0.709174917 32.7838073,0.125676568 32.172081,0.0448844884 C31.9471816,0.0134653465 31.7222822,0 31.5108768,0 C31.1060579,0 30.701239,0.0538613861 30.3414,0.15709571 C29.6217219,0.363564356 29.1269433,0.803432343 28.7401163,1.1580198 L28.7401163,1.1669967 C28.6951365,1.21188119 28.6501566,1.24330033 28.6051767,1.27920792 C28.3577874,1.49016502 28.0204383,1.78191419 27.7055792,2.32052805 C27.4806798,2.71551155 27.3097562,3.12844884 27.1658206,3.48752475 L27.1208408,3.56831683 C26.9769051,3.93636964 26.4236527,5.53425743 26.311203,6.05042904 C26.2347372,6.44092409 26.1537734,6.85834983 26.1132915,7.30719472 C26.0683116,7.77848185 26.1042955,9.34943894 26.1582714,9.80277228 C26.2032513,10.1394059 26.2752191,10.4984818 26.3381909,10.8126733 L26.4056607,11.0819802 C26.5091144,11.5667327 26.9229293,12.7965677 27.1793146,13.4249505 C27.2692744,13.6493729 27.3727281,13.8423762 27.4716838,14.0308911 C27.5616436,14.1924752 27.6381093,14.3450825 27.6965832,14.4932013 L27.8540128,14.9240924 C27.9259806,15.1485149 28.0069443,15.3908911 28.1103981,15.6422442 C28.2003578,15.8666667 28.4477471,16.4052805 28.6861405,16.930429 L29.0729674,17.7742574 C29.1809191,18.030099 29.2978668,18.2679868 29.4013205,18.469967 C29.4732883,18.6046205 29.5362602,18.7392739 29.590236,18.8559736 C29.6801958,19.0669307 29.8511193,19.4260066 30.0400348,19.7985479 C29.8601153,19.7716172 29.6667018,19.7536634 29.4822843,19.7536634 C29.0324855,19.7536634 28.6726465,19.8434323 28.4027673,19.9107591 L28.2903176,19.9421782 C27.777547,20.0633663 27.021885,20.3012541 26.4461426,20.9879868 L26.297709,21.1675248 L26.2302392,20.8219142 C26.2122472,20.6872607 26.1987533,20.5256766 26.1852593,20.359604 C26.1672674,20.1621122 26.1492754,19.9556436 26.1177895,19.7446865 L26.0008418,19.0265347 C25.933372,18.5776898 25.8119263,17.8281188 25.7939344,17.6351155 C25.7624485,17.3209241 25.7309625,16.979802 25.7039746,16.5578878 C25.6859827,16.4232343 25.6589947,16.1449505 25.6365048,15.8217822 L25.5105611,14.3405941 L25.4655813,13.5685809 C25.4206014,12.850429 25.3846175,12.329769 25.3621276,12.0963696 L25.3306416,11.6609901 C25.3216457,11.450033 25.3081517,11.2121452 25.2856618,10.9563036 C25.2406819,10.5658086 25.182208,10.1842904 25.1282322,9.81174917 C25.0832523,9.54244224 25.0382724,9.29557756 24.9842966,9.07115512 L24.9033328,8.66719472 C24.831365,8.26323432 24.5075099,6.7820462 24.3905622,6.36462046 C24.2736145,5.93821782 23.715864,4.37174917 23.4774707,3.91841584 C23.2525713,3.4830363 22.982692,2.93993399 22.4699214,2.51353135 C21.9211669,2.05570957 21.2689587,1.83128713 20.4683169,1.83128713 L20.3963491,1.83128713 C19.8341006,1.84026403 19.2718522,1.98389439 18.6736198,2.27115512 C18.214825,2.49557756 17.6255887,2.83221122 17.1667939,3.46059406 C16.8609307,3.86455446 16.7169951,4.2909571 16.6090434,4.62759076 L16.5190837,4.90587459 L16.3616541,5.2469967 C16.2402084,5.50732673 16.1052688,5.79907591 16.0018151,6.14468647 C15.8803694,6.53518152 15.7634217,6.89874587 15.650972,7.21293729 L15.5790042,7.40594059 C15.4890445,7.67524752 15.3541048,8.03432343 15.2326592,8.46970297 C15.1741853,8.69412541 15.1247075,8.9409901 15.0752296,9.16990099 L14.9627799,9.67260726 C14.8728202,10.0406601 14.7963544,10.3593399 14.7063946,10.7722772 L14.5264751,11.5981518 L14.4365153,12.0245545 L14.2700898,12.899802 L14.1486441,13.5506271 C14.0586844,13.9770297 13.824789,15.2562376 13.7663152,15.5794059 L13.6583635,16.1045545 C13.6133836,16.3289769 13.5594077,16.5533993 13.5234238,16.7778218 C13.46495,17.1189439 13.3884842,17.7922112 13.3210144,18.3936634 C13.2760345,18.730297 13.2445486,19.0579538 13.2220587,19.1926073 L13.1680828,19.6055446 C13.1320989,19.8883168 13.091617,20.180066 13.0511351,20.4224422 L12.9611754,20.9790099 C12.9386854,21.1675248 12.9161955,21.3380858 12.8802116,21.5310891 C12.8082438,21.9215842 12.5338665,23.5508911 12.4753927,23.9772937 C12.4484048,24.1433663 12.3404531,24.6864686 12.2504933,25.0859406 C12.1425416,25.6021122 12.0705738,25.929769 12.0480839,26.1182838 C12.003104,26.3606601 11.9581241,26.6838284 11.8951523,27.0159736 L11.7602126,27.7071947 C11.7512167,27.4378878 11.7332247,27.1865347 11.7152328,26.9531353 L11.5443092,25.4629703 L11.4678434,24.8121452 C11.4138676,24.3273927 11.2969199,22.9988119 11.2879239,22.7474587 C11.2879239,22.4018482 11.3239078,19.7985479 11.3329038,19.4439604 L11.3913777,18.290429 C11.4498515,17.1368977 11.4813374,16.3065347 11.4903334,16.0641584 C11.4903334,15.9429703 11.4903334,15.6871287 11.4993294,15.3908911 C11.4993294,14.8163696 11.5128233,14.0353795 11.5218193,13.7974917 C11.5218193,13.5506271 11.5218193,13.3217162 11.5083253,13.1242244 C11.5083253,12.9446865 11.4948314,12.7875908 11.5083253,12.6529373 C11.5083253,12.4285149 11.5398112,11.8091089 11.5667992,11.2615182 C11.5892891,10.8755116 11.6117791,10.5209241 11.6117791,10.3638284 C11.625273,10.130429 11.620775,9.9149835 11.620775,9.7040264 L11.620775,9.21029703 C11.634269,8.9409901 11.620775,8.61333333 11.6072811,8.22283828 C11.6072811,8.20039604 11.6072811,8.1689769 11.5982851,8.13306931 L12.5563565,8.07920792 L13.1410949,8.05227723 L13.3210144,8.03432343 C13.7258333,8.00290429 14.1306522,7.9669967 14.5264751,7.81887789 C15.1022175,7.59445545 15.8308915,7.04237624 16.0647869,5.62851485 C16.1457507,5.10336634 16.1457507,4.56475248 16.0512929,4.01267327 C15.9298473,2.98033003 15.4575586,2.35194719 15.0797276,2.01531353 C14.6389248,1.61135314 14.0721783,1.3510231 13.2985245,1.18943894 C12.8757136,1.09966997 12.376437,1.00092409 11.8321804,1.00092409 L11.7961965,1.00092409 C11.4363575,1.00092409 11.0945105,1.05478548 10.7931453,1.09966997 C10.6851936,1.11762376 10.5682459,1.13557756 10.4602942,1.14455446 C10.1274431,1.18943894 8.43619971,1.41386139 7.98640094,1.52158416 L7.2667229,1.69214521 C6.75845029,1.81333333 5.98029841,2.00633663 5.70142317,2.05122112 C5.41804994,2.09610561 5.16166464,2.17240924 4.92776928,2.23973597 C4.75684574,2.28462046 4.59941617,2.33848185 4.46897453,2.36092409 C4.16311136,2.41478548 2.28745048,2.80079208 1.81516177,2.95788779 C0.839098429,3.26759076 0.195886183,4.0979538 0.0474525879,5.22006601 C-0.0200172281,5.77663366 -0.0694950932,6.61148515 0.294841913,7.41940594 C0.789620564,8.51458746 1.90512152,8.69412541 2.37741023,8.76594059 L2.51234987,8.78838284 C2.78222913,8.83326733 3.11957821,8.89161716 3.50190717,8.89161716 C3.60985887,8.89161716 3.7088146,8.89161716 3.80327235,8.88264026 C3.92471801,8.87366337 4.07315161,8.86917492 4.2215852,8.86917492 L4.37451679,8.86917492 C4.38801075,9.45267327 4.39250874,10.5658086 4.38801075,10.7543234 C4.37901478,10.9966997 4.37901478,11.5622442 4.37901478,12.1008581 L4.37901478,12.9850825 C4.37901478,13.1421782 4.36102282,13.3531353 4.34752886,13.559604 C4.32953691,13.8109571 4.31154496,14.0667987 4.30254898,14.3091749 L4.30254898,16.6611221 L4.27106307,17.8191419 L4.25756911,18.0121452 L4.20809124,20.090297 C4.19909527,20.3326733 4.19909527,20.9206601 4.19459728,21.4951815 L4.19459728,22.3614521 L4.17660533,23.3668647 C4.16760935,23.7169637 4.12262947,25.1487789 4.10463752,25.4854125 L4.09114356,25.7816502 L4.04616368,26.5222442 L4.00118381,26.760132 C3.95620393,26.9845545 3.91122405,27.2987459 3.87973814,27.6443564 C3.8572482,27.9585479 3.87074216,28.2637624 3.87973814,28.5285809 L3.8932321,28.8786799 C3.8932321,29.610297 4.07315161,30.1937954 4.23507917,30.5528713 C4.81981757,31.9083828 5.85435475,32.0520132 6.2771656,32.0520132 C6.47057907,32.0520132 6.66399254,32.0250825 6.861904,31.9712211 L7.02832955,31.9263366 C7.69403173,31.7333333 8.04037679,31.6345875 8.28776612,31.5044224 L8.36872989,31.4685149 L8.57563733,31.4685149 L8.77354879,31.4774917 C8.87250452,31.4864686 8.96246428,31.4864686 9.04342805,31.4864686 C10.4647922,31.4864686 10.9775628,30.4227063 11.260936,29.8526733 C11.3194098,29.7359736 11.3958756,29.5833663 11.4723414,29.390363 C11.4543495,29.6955776 11.4723414,29.9873267 11.5488072,30.2656106 C11.7737066,31.1633003 12.1110557,31.5493069 12.4349108,31.8724752 C13.1455929,32.5906271 14.2790858,32.6355116 14.6119369,32.6355116 C14.7558725,32.6355116 14.8908121,32.6355116 15.0167558,32.6130693 C15.668964,32.5143234 17.859484,32.1013861 18.7051057,30.8535974 C19.1099246,30.2431683 19.2358683,28.9460066 19.2673542,27.9630363 L19.2673542,27.9046865 L19.2988401,27.9046865 C19.5237395,27.9181518 19.8385986,27.9405941 20.1894417,27.949571 C20.1804457,28.4792079 20.1624537,29.9334653 20.1714497,30.2745875 L20.1714497,30.4765677 C20.1624537,30.8042244 20.1534578,31.2575578 20.3198833,31.7333333 C20.5627746,32.4245545 21.0260674,32.9721452 21.6692796,33.3177558 C22.281006,33.6454125 23.0411659,33.6768317 23.3335351,33.6768317 C23.4999606,33.6768317 23.6573902,33.6768317 23.8148198,33.6588779 C24.5794777,33.5691089 25.3531316,33.2683828 25.8254203,32.8689109 C26.4416446,32.3437624 26.680038,31.7916832 26.8419655,31.2844884 C26.9499172,30.9433663 27.0533709,30.1309571 27.1118448,29.4980858 C27.2917643,29.8392079 27.4806798,30.1444224 27.6156194,30.3149835 C27.9034906,30.6920132 28.2003578,31.0241584 28.5332089,31.3293729 C28.9020439,31.6749835 29.3068628,31.9353135 29.6307179,32.1462706 C29.981561,32.3706931 31.5648526,33.120264 32.3295106,33.2234983 C32.5903938,33.250429 32.900755,33.2818482 33.2426021,33.2818482 C33.4540075,33.2818482 33.6564169,33.2683828 33.8588264,33.2369637 C34.4210748,33.169637 34.9203515,32.990099 35.3431623,32.8240264 C35.8919168,32.599604 36.3327196,32.2854125 36.6655707,32.0385479 C37.1603494,31.670495 38.2623564,30.310495 38.5412316,29.7359736 C38.5862115,29.65967 38.6221954,29.5788779 38.6626773,29.5025743 C38.8201069,29.1883828 39.0000264,28.8472607 39.1124761,28.4433003 C39.1574559,28.2951815 39.2339217,27.9585479 39.3103875,27.5635644 C39.3283795,27.8553135 39.3733593,28.1111551 39.4138412,28.3266007 C39.4768131,28.6677228 39.5802668,29.2377558 39.9670937,29.830231 C40.218981,30.2117492 40.8352054,30.8625743 42.1441198,30.8625743 C42.2970514,30.8625743 42.4589789,30.8491089 42.6119105,30.8311551 C43.0527133,30.7862706 43.4530342,30.6650825 43.8038773,30.5618482 L44.0287766,30.4990099 C44.253676,30.4316832 44.4470895,30.3643564 44.6135151,30.3060066 L44.9013863,30.2162376 C45.6660442,30.1713531 46.2058027,29.9110231 46.5656417,29.6013201 L46.6331115,29.7359736 C46.8580109,30.1848185 47.1278902,30.6516172 47.3887735,31.0106931 C47.6856407,31.4326073 48.0094958,31.7378218 48.297367,32.0071287 L48.3648368,32.0744554 C48.7336718,32.4245545 49.1384907,32.7836304 49.6152774,33.0484488 C50.3709393,33.4524092 51.7473236,33.9192079 52.4040298,33.9730693 C52.5839493,33.9910231 52.7863588,34 53.0022622,34 C53.7399322,34 54.8104532,33.8922772 55.3412158,33.7082508 C56.4657127,33.3222442 57.2888445,32.4649505 57.6441855,32.0924092 L57.6756714,32.0609901 C57.8780809,31.850033 58.2739038,31.4326073 58.5887629,31.0151815 C58.948602,30.5394059 59.677276,29.0941254 59.8032196,28.8023762 C60.028119,28.3086469 60.1630586,27.7790099 60.2755083,27.330165 C60.396954,26.8364356 60.4779178,26.3741254 60.5228977,25.9073267 C60.5678775,25.5033663 60.5813715,25.0814521 60.5948655,24.5742574 C60.5948655,24.3273927 60.5948655,24.0805281 60.5813715,23.8561056 L60.5678775,23.3174917 C60.5678775,23.209769 60.5678775,23.1020462 60.5768735,22.989835 C60.5858695,22.7070627 60.5993635,22.3928713 60.5768735,22.0472607 C60.5588816,21.8542574 60.5318936,21.670231 60.5139017,21.5086469 C60.4914117,21.3291089 60.4689218,21.1630363 60.4689218,21.059802 C60.4779178,20.8712871 60.4689218,20.6693069 60.4599258,20.4763036 C60.4689218,20.4763036 60.4734198,20.4763036 60.4824158,20.4673267 L60.783781,20.2518812 C60.9637005,20.1172277 61.8093222,19.6414521 62.223137,19.4125413 C62.4930163,19.259934 62.6999237,19.1432343 62.8213694,19.0624422 C63.2261883,18.8245545 63.5410474,18.5552475 63.8289186,18.3218482 L63.9953442,18.1871947 C64.053818,18.1333333 64.1527738,18.0660066 64.2517295,17.989703 C64.440645,17.8550495 64.6790383,17.6844884 64.9174317,17.4780198 C65.0343794,17.3747855 66.4692374,16.0058086 66.8065865,15.2921452 C66.8965463,15.0766997 66.9640161,14.8657426 67,14.6637624 L67,14.0757756 Z"/>
    <path fill="#333" d="M14.964904,4.68453922 C14.9199136,4.23420499 14.7714453,3.86493092 14.4970039,3.61724709 C14.2270615,3.3740666 13.8356451,3.23896633 13.4172344,3.14889949 C13.0573112,3.07234267 12.6658948,2.99578585 12.2474841,2.99578585 C11.8740638,2.99578585 11.4826474,3.0858527 11.0777338,3.13088612 C10.6908164,3.17591954 9.11165352,3.40108666 8.76522748,3.47764348 C8.28832928,3.58572369 6.88912797,3.93698439 6.40323169,4.01804455 C6.01181525,4.08559469 5.60690169,4.2567217 5.17949292,4.33327852 C4.76108224,4.40533199 3.05594624,4.77460606 2.75001155,4.8736796 C2.32710183,5.01778655 2.10664889,5.36004057 2.03916329,5.88242827 C1.98517482,6.31024579 1.95818058,6.81011679 2.15613832,7.246941 C2.30460663,7.57568499 2.67802691,7.6522418 3.0739424,7.7152886 C3.39787325,7.76032202 3.75779642,7.85038887 4.13571574,7.81436213 C4.49563891,7.77833539 4.88255631,7.80535544 5.20648716,7.7693287 C5.71937768,7.72429528 6.20527395,7.61621507 6.27275954,7.73330197 C6.34024514,7.84588552 6.33124706,8.42231334 6.36274034,8.92668768 C6.38523553,9.30496844 6.39423361,11.0162385 6.38523553,11.2774324 C6.37623745,11.6647198 6.38523553,13.101286 6.38523553,13.4975801 C6.37623745,13.8893709 6.3132509,14.4252686 6.30875186,14.8215628 L6.30875186,17.1858175 C6.29975378,17.5821116 6.28175762,18.1675461 6.26376147,18.5593369 C6.26376147,18.955631 6.21877107,20.2796137 6.21877107,20.6443844 C6.20527395,21.0046518 6.20077491,22.4592313 6.19627587,22.8240021 L6.18277875,23.9138109 C6.17378067,24.2740783 6.12879028,25.7331612 6.11079412,26.0934286 C6.08829892,26.453696 6.07930084,26.82297 6.04780757,27.1832374 C6.02981141,27.4309213 5.92183446,27.8362221 5.88584214,28.2910596 C5.86334694,28.651327 5.9038383,29.0566278 5.9038383,29.4168952 C5.9038383,29.8672295 6.01631429,30.2455102 6.1197922,30.4841874 C6.27725858,30.8579648 6.52470576,31.123662 6.90262509,31.0245884 C7.27154633,30.9120049 7.8924138,30.7453812 8.04988018,30.664321 C8.5177803,30.4256439 8.67974572,30.4571673 9.05766505,30.4616706 C9.75501618,30.4706773 9.89448641,30.6192876 10.3353923,29.7051091 C10.4793616,29.4168952 10.6368279,29.0746412 10.6593231,28.6873538 C10.6818183,28.3496031 10.6593231,27.9758257 10.6323289,27.6065516 C10.6008356,27.2552909 10.420874,25.8052147 10.3893808,25.4989874 C10.3443904,25.12521 10.2094192,23.6526171 10.2094192,23.2743363 C10.2004211,22.9005589 10.2364134,20.257097 10.2544096,19.8878229 C10.2634077,19.5140455 10.3893808,16.915617 10.3983788,16.5238262 C10.4073769,16.1410421 10.416375,14.600899 10.4298721,14.2181149 C10.4433692,13.8353308 10.4028779,13.4525467 10.416375,13.0607559 C10.4298721,12.6779718 10.5063558,11.1423321 10.528851,10.7550447 C10.5423481,10.3722606 10.5198529,9.98947647 10.5378491,9.60669237 C10.5558452,9.07980132 10.4478683,7.85038887 10.524352,7.3640279 C10.5603443,7.13886078 11.3476762,7.16137749 11.4961445,7.10733738 C11.7210965,7.01727054 13.1337949,6.97223711 13.4487277,6.9497204 C13.8356451,6.91369366 14.2045663,6.8956803 14.4385164,6.81462013 C14.7534492,6.68852655 14.9154146,6.28322574 14.9918983,5.81487814 C15.0458867,5.48613415 15.0548848,5.09434337 14.9739021,4.67102919 M26.0685337,29.2547749 C26.0865299,28.8764941 25.9650558,28.5072201 25.9515587,28.1424493 C25.9335625,27.7641686 25.9515587,27.3903912 25.9155664,27.0346271 C25.870576,26.6473397 25.7581,25.1432234 25.6996125,24.8189827 C25.6186298,24.3776552 25.4071749,23.0041358 25.3621845,22.6438684 C25.3171941,22.283601 25.2137162,21.9233336 25.1597277,21.5630662 C25.1057393,21.2027988 25.0967412,20.8425315 25.0472517,20.4822641 C24.9932633,20.1219967 24.741317,18.6719205 24.7098238,18.298143 L24.6108449,17.1858175 C24.5793516,16.8165434 24.4533785,15.3394471 24.4308833,14.9656697 C24.39939,14.5963957 24.3184073,13.1102927 24.282415,12.7410186 C24.2464227,12.3717446 24.2464227,11.9979671 24.2059313,11.6286931 C24.1609409,11.259419 24.1159505,10.8901449 24.057463,10.5208709 C24.0034746,10.1515968 23.9089947,9.79132941 23.8415091,9.42655868 C23.7740235,9.06629129 23.4590908,7.61171172 23.3601119,7.25144434 C23.256634,6.87766693 22.7302464,5.42308736 22.5637819,5.09884671 C22.3703232,4.72957264 22.1948606,4.38731862 21.9249183,4.16215151 C21.6324807,3.91446768 21.2950527,3.83791086 20.872143,3.84691755 C20.5482122,3.84691755 20.2107842,3.93698439 19.7923735,4.13062811 C19.4324503,4.31076181 19.0950224,4.52241889 18.8475752,4.85116288 C18.6226232,5.16639685 18.5416405,5.57169765 18.3886732,5.95898509 C18.2357058,6.32825916 18.0377481,6.68852655 17.920773,7.07131065 C17.799299,7.47661145 17.6733259,7.86389889 17.5473527,8.21966294 C17.457372,8.48986348 17.2954065,8.87715091 17.1694334,9.34549852 C17.0794526,9.69675922 17.007468,10.0930533 16.9084891,10.5163675 C16.8185083,10.8766349 16.7420247,11.1918689 16.6520439,11.5971697 L16.3955986,12.8400922 C16.3056178,13.2318829 16.1886428,13.9659277 16.1121591,14.3577185 C16.0311764,14.7630193 15.7972263,15.9924318 15.7342398,16.3662092 C15.6577561,16.7940267 15.5542782,17.1768108 15.4957907,17.5370782 C15.414808,18.0414525 15.2618406,19.5185488 15.2078522,19.9238496 C15.1448656,20.3291504 15.0908771,20.8020014 15.0278906,21.2027988 C14.9559059,21.6080996 14.9199136,21.9368436 14.847929,22.3286344 C14.7759444,22.7339352 14.510501,24.3371251 14.4520135,24.7334192 C14.393526,25.13872 14.0695951,26.5662795 14.0246048,26.8860168 C13.9796144,27.2102575 13.9256259,27.5254914 13.8626393,27.8452288 C13.8086509,28.1604627 13.7411653,28.4756967 13.6736797,28.8044407 C13.592697,29.2097415 13.3902402,30.0068331 13.4937181,30.4256439 C13.6421864,30.9840583 13.7996528,31.1461787 13.9886124,31.3263124 C14.2495567,31.5965129 14.9469079,31.6865798 15.2483435,31.6415463 C15.8512148,31.5424728 17.4528729,31.1596887 17.8757826,30.5382275 C18.0692413,30.2455102 18.1682202,28.7999373 18.1817173,28.4576833 C18.1907154,28.0884092 18.2402048,27.0616472 18.3076904,26.9625737 C18.3976712,26.8454868 18.8610723,26.8815135 19.6034138,26.8860168 C19.7653793,26.8950235 20.2782698,26.953567 20.7956593,26.9490636 C21.326546,26.9490636 22.1093789,26.9355536 22.1543693,27.0076071 C22.2173558,27.1201906 22.2083578,27.9307923 22.1993597,28.4576833 C22.1903616,28.9890777 22.1723654,30.493194 22.1768645,30.8174347 C22.1858626,31.164192 22.1453712,31.5019427 22.2443501,31.7901566 C22.352327,32.0963839 22.5457857,32.3485711 22.8652175,32.5196981 C23.1036666,32.6547983 23.6120581,32.7448652 24.1069525,32.6863217 C24.5928487,32.6277783 25.0697469,32.4296312 25.2767028,32.2494975 C25.6231288,31.9567803 25.7266067,31.6865798 25.8255856,31.3713458 C25.9155664,31.1011452 26.0685337,29.6870958 26.0775318,29.2637816 M21.8484346,23.8687775 C21.5020085,23.9588443 20.1387996,23.9138109 19.7788764,23.8777842 C19.274984,23.8327507 18.7216021,23.9003009 18.6676136,23.7561939 C18.6046271,23.5850669 18.7845886,22.8465188 18.8025848,22.4051912 C18.8160819,21.9998904 18.9015637,20.9821351 18.9690493,20.4372306 C19.0140397,20.0949766 19.0140397,19.6986825 19.0680281,19.2753683 C19.1130185,18.9151009 19.2479897,17.3389311 19.3109763,16.9516437 C19.3649647,16.5643563 19.4684427,16.1860755 19.5359282,15.8032914 C19.5899167,15.416004 19.6529033,15.0287165 19.7158898,14.6549391 C19.7833754,14.2496383 20.075813,12.7410186 20.1657938,12.4122746 C20.3142621,11.7908134 20.5077208,11.1513388 20.6336939,11.1648488 C20.7371718,11.1738555 20.8316516,11.8088268 20.9036363,12.4978381 L21.209571,16.1635588 L21.3895326,18.5413235 C21.4210258,18.9331143 21.5245037,19.3294084 21.5469989,19.7257026 C21.5784922,20.1310034 21.6369797,20.5182908 21.663974,20.8965716 C21.6954672,21.3333958 21.7359586,21.6981665 21.7539548,22.0494272 C21.7899471,22.6033383 22.0238971,23.8327507 21.8439356,23.8777842 M32.5066594,11.0117352 C32.4031815,10.7325279 32.2052237,10.2191469 32.1467362,9.7372893 C32.1152429,9.37702191 32.1332391,8.20615291 32.2502141,7.81436213 C32.3626901,7.43608137 32.6236344,6.67051318 32.8485864,6.33726585 C33.0600412,6.02203189 33.2849932,5.7788514 33.6269202,5.5446776 C34.0183367,5.28348375 34.4367474,5.47262412 34.6167089,5.80136811 C34.855158,6.25170234 34.6976917,7.52614822 34.6167089,7.90442897 C34.5402253,8.26469636 34.3017762,8.60244703 34.2657839,8.94920439 C34.2297915,9.34099517 34.4187512,9.67874585 34.5807166,9.98497312 C34.6616993,10.1200734 34.8956494,10.3317305 35.2015841,10.5118642 C35.4895226,10.6829912 35.7684631,10.9081583 35.9529237,10.917165 C36.3353421,10.9531917 36.6097835,10.7955747 36.8347355,10.6199444 C37.0821826,10.4398107 37.2621442,10.1831202 37.3611231,9.8543762 C37.4511039,9.56616229 37.5680789,9.2374183 37.5680789,8.917681 L37.5680789,7.81886547 C37.5680789,7.45859809 37.5230885,7.0983307 37.5005933,6.75157334 C37.4780981,6.39130596 37.5005933,6.02203189 37.4376068,5.67977787 C37.3836183,5.31951048 37.2666433,4.97275313 37.1451692,4.64400914 C37.0011999,4.26572838 36.785246,3.96850779 36.560294,3.72983065 C36.3128469,3.45963011 36.0339064,3.21644962 35.7189736,3.04532261 C35.4040409,2.87869895 35.0441177,2.8201555 34.6976917,2.68505523 C34.3692618,2.56796833 32.8215921,2.08160736 32.4481719,2.03207059 C32.0252621,1.97803049 31.6113505,1.98703717 31.2334312,2.09962073 C30.8600109,2.20770094 30.5585752,2.47790148 30.2436425,2.77512208 C29.9737001,3.01379922 29.73975,3.16691286 29.510299,3.55870364 C29.3213393,3.88744763 29.1773701,4.25221836 29.0289018,4.61698908 C28.8804335,4.97725647 28.376541,6.47236612 28.3000574,6.84164019 C28.2235737,7.20190757 28.1560881,7.56217496 28.1200958,7.92244234 C28.0886025,8.28270973 28.1200958,9.74629598 28.1650862,10.1065634 C28.2100766,10.4578241 28.3135545,10.8991516 28.3900382,11.2549157 C28.4575237,11.615183 28.830944,12.7275086 29.0783912,13.3264531 C29.2133624,13.6506938 29.4293163,13.9929478 29.5957808,14.3937453 C29.73975,14.7405026 29.847727,15.1593134 30.0006943,15.5330909 C30.1581607,15.8933582 30.8105215,17.3119111 30.9634888,17.6586684 C31.1299533,18.0504592 31.323412,18.4017199 31.4673812,18.7214572 C31.6833351,19.1988115 32.3671891,20.5768343 32.5606479,20.955115 C32.7676037,21.3424024 32.8980758,21.7657166 33.0645403,22.1620108 C33.2355038,22.5673116 33.3794731,22.9726124 33.482951,23.4004299 C33.5459375,23.6706304 33.9148588,25.0891833 33.946352,25.440444 C33.9778453,25.8007113 33.9013616,26.9715803 33.5594346,27.4579413 C33.3074884,27.8317187 33.141024,27.9983424 32.7226133,27.966819 C32.2142218,27.9217856 31.899289,27.5435048 31.7553198,27.1291973 C31.5753582,26.624823 31.6428438,26.0123684 31.6428438,25.8232281 C31.6428438,25.5530275 31.7013313,25.1477267 31.6878342,24.6973925 C31.6878342,24.3371251 31.5843563,23.9588443 31.5168707,23.5895703 C31.444886,23.2022828 31.323412,22.8555255 31.1344523,22.5538015 C30.9364946,22.2385676 30.6980455,21.9503537 30.30213,21.8602868 C29.852226,21.7567099 29.4698077,21.8828035 29.1188826,21.9638637 C28.6959728,22.0629372 28.3540458,22.2025408 28.0976006,22.5042648 C27.8456544,22.8014854 27.6162033,23.1572494 27.5577158,23.5850669 C27.5577158,23.5850669 27.6117043,25.4089206 27.6656928,25.8232281 C27.7106832,26.1699854 27.8456544,26.5212461 27.9356352,26.9040302 C28.0166179,27.2552909 28.1380919,27.6020483 28.2730631,27.9623157 C28.3990362,28.3000663 29.0738922,29.6105389 29.3078422,29.9122629 C29.5237961,30.2004768 29.7577462,30.4706773 30.0411857,30.7318712 C30.3111281,30.9750517 30.6080647,31.1822054 30.9274965,31.3848558 C31.2289321,31.5784995 32.574145,32.1729407 32.9835576,32.2224775 C33.3434807,32.2675109 33.7258991,32.3035376 34.1218146,32.2540009 C34.4952349,32.2089675 34.850659,32.0828739 35.2195802,31.9297602 C35.5660063,31.79466 35.871941,31.5920096 36.1913728,31.3443257 C36.4838104,31.1191586 37.4286087,29.9617996 37.6085703,29.5880222 C37.7750347,29.2502716 37.9864896,28.8900042 38.0899675,28.5432468 C38.1889464,28.1829794 38.4498907,26.7779366 38.4363936,26.4086626 C38.4273955,26.0393885 38.373407,25.6656111 38.3194185,25.2918337 C38.2744281,24.9315663 38.0584742,24.6028223 37.9729925,24.2335482 C37.8830117,23.8867909 37.7840328,23.5355302 37.6760559,23.1752628 C37.5680789,22.8330088 37.4376068,22.4907547 37.3071346,22.139494 C37.1856605,21.79724 37.0371922,21.4639927 36.9022211,21.1172353 C36.7582518,20.7794847 36.1958718,19.4239786 36.0384055,19.0817246 L35.5750044,18.0819826 L35.1026052,17.0912473 C34.9451388,16.758 34.8776532,16.3842226 34.7201869,16.0464719 C34.5672195,15.7177279 34.4052541,15.3889839 34.2432887,15.0557366 C34.0948204,14.7179859 33.9013616,14.4027519 33.7483943,14.0650013 C33.599926,13.7317539 33.491949,13.3759899 33.3434807,13.0292325 C33.1995115,12.7004885 33.0825364,12.3537312 32.9385672,12.0069738 C32.803596,11.6692232 32.6371315,11.3404792 32.5066594,10.9937218 M49.4905338,4.62149243 C49.5940117,4.37831194 49.7154858,3.9910245 49.6884916,3.62175043 C49.6569983,3.23896633 49.4905338,2.85618224 49.3195703,2.65803518 C49.1396087,2.45088143 48.6897048,2.3202845 48.257797,2.29776779 C47.8438853,2.26624439 47.4209756,2.36531792 47.1645304,2.36081458 C46.7416206,2.36081458 46.3097128,2.27975442 45.9047993,2.27074774 C45.4818895,2.27074774 45.0679779,2.25723771 44.6450682,2.25273437 C44.2401546,2.24372768 43.8172449,2.27525108 43.3988342,2.26624439 C42.9939207,2.26624439 42.57551,2.34280121 42.1481012,2.33829787 C41.9051531,2.33829787 41.5092376,2.27975442 41.0863279,2.27074774 C40.7354028,2.26174105 40.3664815,2.27074774 40.0335526,2.33379453 C39.628639,2.40584801 39.3137063,2.52743825 39.1562399,2.80664547 C39.052762,2.98677916 38.8143129,3.32452984 38.7513263,3.73883733 C38.7063359,4.05407129 38.823311,4.43685539 38.8638023,4.76559938 C38.9087927,5.12586676 38.9987735,5.4275907 39.2102284,5.66626784 C39.4351803,5.9274617 39.9570689,5.91845501 40.5014527,5.8644149 C41.0143432,5.81938148 42.0761166,5.70229458 42.2290839,5.80136811 C42.346059,5.87342159 42.2875714,6.33276251 42.3730532,6.83713685 C42.4270417,7.15237081 42.4270417,7.52164488 42.4405388,7.94495906 C42.4540359,8.27820639 42.4495369,9.76430935 42.4315407,10.1515968 C42.4180436,10.5028575 42.3685542,10.9621984 42.3415599,11.3449825 C42.3235638,11.7052499 42.1930916,13.074266 42.1615983,13.4480434 C42.1391031,13.8083108 42.125606,14.2001015 42.0986118,14.5738789 C42.0671185,14.9341463 42.0851147,15.285407 42.0626195,15.6546811 C42.0356252,16.0149485 41.9546425,16.4968061 41.9276483,16.8705835 C41.9096521,17.2308509 41.6757021,19.6626558 41.6577059,20.0319298 C41.6442088,20.4012039 41.6802011,21.8017434 41.666704,22.1575074 L41.6352107,23.3283764 C41.6217136,23.7066572 41.5002395,25.1747468 41.4867424,25.5215041 C41.4687462,25.9132949 41.3427731,27.3138344 41.3157789,27.5930416 C41.2797866,27.953309 41.3382741,28.2775496 41.3922626,28.5927836 C41.437253,28.8764941 41.4912414,29.2007348 41.7071953,29.5294788 C41.9051531,29.8312027 42.4000474,29.8987529 42.8904427,29.8447127 C43.2683621,29.7996793 43.6687766,29.6645791 44.060193,29.5564988 C44.5550874,29.4213986 44.9734981,29.2412649 45.2074481,29.2277548 C45.756331,29.2097415 46.0712637,29.0160978 46.2287301,28.7143738 C46.3816975,28.4126499 46.4311869,28.0208591 46.4086917,27.5435048 C46.3816975,27.1832374 46.2827186,26.7779366 46.2512253,26.3546224 L46.1747416,25.2062702 L46.1207532,24.0624212 C46.107256,23.6751338 46.0757628,23.296853 46.0577666,22.9095656 L46.0217743,21.7612133 C46.0082772,21.3784292 46.0487685,20.9956451 46.0442695,20.6083577 C46.0352714,20.2255736 45.9992791,18.7890074 45.9992791,18.4017199 C45.9992791,18.0234392 45.9722849,17.5370782 45.9677858,17.1407841 C45.9677858,16.77151 46.0127762,16.3076657 46.0127762,15.915875 L46.0217743,14.8530862 C46.0217743,14.4928188 45.9992791,13.2048629 45.990281,12.8490988 C45.990281,12.4888315 45.9632868,11.9754504 45.9542887,11.615183 C45.9407916,11.2549157 45.9092983,10.8946483 45.9003002,10.5253742 C45.8868031,10.1741135 45.8103194,9.2058949 45.8013214,8.84112418 L45.7293367,7.46310143 C45.7113406,7.12084741 45.6123617,6.14812547 45.6123617,5.88693162 C45.6123617,5.67077119 46.1522464,5.73832132 46.782112,5.72481129 C47.1645304,5.71130127 47.5244535,5.64375113 47.8438853,5.62573776 C48.2487989,5.60322105 48.6222192,5.64825447 48.9011596,5.50865086 C49.1935972,5.36454391 49.3735588,5.0448066 49.4995319,4.63049911 M65.876036,14.0604979 C65.7185696,13.6461904 65.5431071,13.3759899 65.3541474,13.1733395 C65.0707079,12.8671122 64.8142626,12.7950587 64.4678366,12.8400922 C64.1619019,12.8761189 63.8694643,13.0202258 63.5320364,13.2318829 C63.2485969,13.4120166 62.924666,13.5651303 62.6322284,13.8038074 L61.8224013,14.4793088 C61.5434609,14.7179859 61.3185089,15.0197098 61.0485665,15.2223602 C60.7336337,15.4610374 60.4007048,15.6186544 60.1127663,15.7447479 C59.6178719,15.9609084 59.0914843,16.2671357 59.0914843,16.2671357 C58.9565131,16.1770688 59.1004824,15.2133536 59.1499718,14.8891129 C59.1949622,14.6099057 59.2534497,14.1325514 59.3434305,13.6461904 C59.4109161,13.2769164 59.4918988,12.9571791 59.5683825,12.5518782 L59.8248277,11.3584925 C59.9238066,10.8766349 59.9777951,10.5028575 60.0407816,10.2191469 C60.0992692,9.94894639 60.1622557,9.57967232 60.2657336,9.16086148 C60.3467163,8.83662083 60.4097029,8.47185011 60.4906856,8.09807269 C60.5806664,7.75581868 60.648152,7.39555129 60.7156376,7.03528391 C60.7831232,6.67501652 60.8146165,6.30123911 60.8506088,5.95448175 C60.8955992,5.56719431 60.9180944,5.21143027 60.9090963,4.8736796 C60.9000982,4.46837879 60.9360905,4.06307798 60.8191155,3.77486407 C60.6706472,3.40559 60.3422173,3.16240951 59.9552999,3.09936272 C59.5323902,3.04081927 59.1544708,3.00929588 58.8530352,3.07234267 C58.4616188,3.16240951 58.2321677,3.47764348 57.9982177,3.7253273 C57.7642676,3.97751447 57.5303176,4.09460137 57.4133425,4.4593721 C57.3098646,4.79261943 57.3683521,5.03579992 57.3233617,5.40507399 C57.2783713,5.76534137 57.2153848,6.11660207 57.1973886,6.46786278 C57.1748934,6.8641569 57.120905,7.66575183 57.0804136,8.0350259 C57.0444213,8.39529329 56.8554616,9.39503528 56.787976,9.75530267 C56.7294885,10.1155701 56.6755,11.2143856 56.5900183,11.7142566 C56.5360298,12.0024705 56.5000375,13.0832726 56.216598,13.4615534 C55.9736499,13.7948007 55.5597382,13.956921 55.0693429,13.9704311 C54.6014428,13.9929478 54.2595158,13.745264 53.9265868,13.4930768 C53.6701416,13.2994331 53.6656426,12.5023415 53.6431474,11.9619404 C53.6341493,11.574653 53.7241301,11.1513388 53.7781185,10.7010046 C53.8231089,10.2776904 53.8231089,9.83636283 53.8995926,9.44907539 C53.9985715,8.90867431 54.05256,8.44483005 54.0930513,8.20164957 C54.1380417,7.96747577 54.4079841,6.54441959 54.4889668,6.19315889 C54.5609514,5.85991156 54.7229169,5.53567092 54.7859034,5.21143027 C54.857888,4.85116288 54.8893813,4.47738547 54.9343717,4.17566154 C55.0153544,3.65327383 55.0558458,3.27499307 54.9793621,3.18492623 C54.7634082,2.95075243 54.3719918,2.7886321 53.944583,2.74359868 C53.5711627,2.69856526 53.1932434,2.85167889 52.8423183,2.96876579 C52.4509019,3.09035604 52.0459883,3.19393291 51.8840229,3.51817356 C51.8120382,3.65327383 51.6590709,4.02705124 51.5375968,4.57195566 C51.4701112,4.88718962 51.2001689,6.35527922 51.1326833,6.73355997 C51.0786948,7.08482067 50.8492438,8.54390358 50.7997543,8.91317765 C50.7547639,9.27344504 50.8087524,9.65622914 50.763762,10.0164965 C50.7187716,10.3767639 50.6737812,10.7550447 50.6377889,11.1108087 C50.6062956,11.4890895 50.5253129,11.8448535 50.5028177,12.2006175 C50.4803225,12.5834016 50.4353321,14.0830146 50.4668254,14.4072553 C50.5118158,14.8756029 50.6242918,15.2493803 50.7502649,15.4790508 C50.9167294,15.7807747 51.10119,16.087002 51.3081458,16.3121691 C51.5330978,16.5643563 51.7265565,16.6949532 52.0009979,16.8525702 C52.2844374,17.0101871 52.7208442,17.1903208 53.0492741,17.2488643 L54.0975504,17.4380047 C54.4574735,17.4965481 54.7724063,17.5010515 55.1323295,17.5595949 C55.7396998,17.6586684 56.7249895,17.5145615 56.7249895,17.5055548 C56.7339876,17.5640982 56.0051431,18.0594659 55.4877536,18.3296664 C55.1998151,18.4782767 54.8758842,18.6449004 54.5429553,18.798014 C54.2190244,18.9601344 53.8860955,19.113248 53.598157,19.2483483 C53.1302568,19.4645087 52.7658346,19.6536491 52.6533586,19.7076892 C52.3204297,19.8562995 51.9875008,20.0049098 51.6635699,20.1580234 C51.326142,20.3111371 50.9797159,20.4642507 50.6647831,20.639881 C50.3408523,20.8110081 50.0889061,21.0361752 49.7964685,21.2568389 C49.50853,21.4729994 49.0316318,21.8873069 48.7841846,22.1575074 C48.5232403,22.4457213 47.9743575,23.5715569 47.8753786,23.9588443 C47.7763997,24.3281184 47.7044151,24.7109025 47.6729218,25.1026933 C47.6459276,25.4899807 47.5514478,25.8907782 47.582941,26.282569 C47.6099353,26.6698564 47.690918,27.0616472 47.7629026,27.4444313 C47.8528834,27.8272154 48.3387797,29.2457682 48.5142422,29.5880222 C48.6942038,29.9392829 48.9281539,30.3535904 49.1441078,30.6598177 C49.3780578,30.9840583 49.6569983,31.2452522 49.9314397,31.5019427 C50.2193782,31.7811499 50.5253129,32.0558538 50.8582419,32.2404909 C51.4746103,32.5782415 52.6488596,32.9520189 53.035777,32.9835423 C53.8006137,33.0465891 54.9928592,32.9159922 55.3302872,32.8034086 C56.1401143,32.5196981 56.8059722,31.7991633 57.0624174,31.5334661 C57.3188627,31.2632656 57.6292964,30.9210116 57.8542484,30.6327976 C58.0792004,30.3310737 58.7450582,29.0476212 58.8890275,28.7188772 C59.059991,28.3270864 59.176966,27.8857588 59.2714459,27.5029747 C59.3704247,27.111184 59.4424094,26.7148898 59.4829007,26.2870723 C59.5188931,25.9087916 59.5368892,25.5034907 59.5503863,25.0621632 C59.5593844,24.6883858 59.5233921,24.2785816 59.5278911,23.8372541 C59.5278911,23.4634767 59.5638835,23.0716859 59.5368892,22.6843985 C59.509895,22.297111 59.4244132,21.9098236 59.4334113,21.5315428 C59.4334113,21.126242 59.3524286,20.4777607 59.3884209,20.3336538 C59.4469084,20.1265 60.0317836,19.770736 60.3647125,19.5230522 C60.7021405,19.270865 62.1778255,18.45576 62.5242515,18.2441029 C62.8976718,18.0189358 63.2081055,17.7487353 63.5275373,17.4875414 C63.7524893,17.3074077 64.0989154,17.0822406 64.4183472,16.8120401 C64.6882895,16.5733629 65.768059,15.4520307 65.9030302,15.1458034 C66.0829918,14.785536 65.9795139,14.4027519 65.8580398,14.0469879 M56.7249895,25.7106445 C56.6799991,26.1834954 56.6350087,26.5752862 56.5315308,26.9175402 C56.4190548,27.2868143 56.2615884,27.638075 56.0591316,28.0523825 C55.87917,28.4126499 55.6272238,28.7278838 55.3617805,28.9305343 C55.0693429,29.1557014 54.6869245,29.2277548 54.3090052,29.2682849 C53.9805753,29.2998083 53.6206522,29.2457682 53.2292357,29.1331847 C52.8558154,29.0115944 52.4958923,28.8809975 52.2754393,28.6468237 C52.0324912,28.3766231 51.9155162,28.0073491 51.8435315,27.6560884 C51.7760459,27.322841 51.6905642,26.9490636 51.780545,26.5887962 C51.9695046,25.8682615 52.5228865,24.8550095 52.7703337,24.5983189 C52.9412972,24.4091786 53.2382338,24.0849379 53.5711627,23.8237441 C53.8411051,23.6210937 54.0750552,23.4319533 54.3719918,23.2293029 C54.6869245,23.0266525 55.0153544,22.8240021 55.2987939,22.6708884 C55.7037075,22.4457213 56.6260106,21.7567099 56.6934962,21.9503537 C56.8374655,22.4006879 56.6485058,22.4727414 56.7249895,23.5715569 C56.7474847,23.8552675 56.7474847,24.1705014 56.7249895,24.6433524 C56.7114924,24.967593 56.7789779,25.2738203 56.7339876,25.7016378"/>
  </g>
</svg>
