<svg xmlns="http://www.w3.org/2000/svg" width="73" height="35" viewBox="0 0 73 35">
  <path fill="#444745" d="M33.0912931,0.461034483 L34.1394828,0.461034483 L34.265,0 L21.3107759,0 L21.1846552,0.461034483 L23.0713362,0.461034483 C24.7060776,0.461034483 26.0059052,1.5925 26.0059052,3.85693966 C26.0059052,5.11452586 25.4628017,6.74956897 24.5817672,8.72012931 L16.2387931,27.2517241 L14.1840517,3.18741379 C14.0162931,1.30103448 14.9383621,0.462844828 17.0775862,0.462844828 L18.2926293,0.462844828 L18.4178448,0 L0.181034483,0 L0.0129741379,0.461034483 L1.18668103,0.461034483 C2.61232759,0.461034483 3.1575431,1.34146552 3.325,3.06038793 L6.55344828,34.1681466 L14.2253879,34.1681466 L27.0540948,7.00150862 C28.9827155,2.93426724 31.0368534,0.461034483 33.0915948,0.461034483 L33.0912931,0.461034483 Z M31.582069,34.3356034 C30.4083621,34.3356034 29.6953879,33.9584483 29.6953879,32.0298276 C29.6953879,29.597931 30.5734052,24.8608621 31.5389224,20.5425862 C31.6626293,22.5550862 33.0475431,24.5253448 35.1022845,24.5253448 C35.6061638,24.5253448 36.0255603,24.4837069 36.4419397,24.3995259 C34.5531466,32.6172845 33.7988362,34.3359052 31.5781466,34.3359052 L31.582069,34.3356034 Z M68.097931,17.9851724 C70.5298276,17.9851724 72.0806897,15.9726724 72.0806897,13.7088362 C72.0806897,11.7802155 70.6972845,10.3548707 68.7270259,10.3548707 C65.1636638,10.3548707 63.4890948,13.1639224 60.553319,18.3596121 C59.9257328,15.1311638 58.4593534,10.8979741 54.6847845,10.8979741 C50.4515948,10.8979741 45.5878017,16.9354741 41.1011638,20.6647845 C39.0886638,22.3423707 36.8257328,23.4315948 35.0214224,23.4315948 C33.1778879,23.4315948 32.0886638,21.5428017 32.0886638,18.2328879 C33.3890948,12.8229741 34.1011638,11.3988362 36.1136638,11.3988362 C37.4985776,11.3988362 38.0839224,12.1953879 38.0839224,13.8307328 C38.0839224,15.5475431 37.7067672,18.483319 36.9524569,22.1311638 C38.9649569,21.5005603 41.9852155,18.9871983 44.4985776,16.2626293 C43.1589224,13.0764224 40.3076293,10.8949569 36.1559052,10.8949569 C28.4860776,10.8949569 21.7757328,17.7682328 21.7757328,25.483319 C21.7757328,30.80875 25.5503017,34.8319397 31.4610776,34.8319397 C41.2309052,34.8319397 45.2981466,26.36375 45.2981466,20.4940086 C45.2981466,19.6552155 45.2559052,19.0276293 45.1714224,18.2721121 C46.6818534,16.637069 48.6101724,15.0862069 50.2032759,15.0862069 C52.0060776,15.0862069 53.4317241,19.614181 54.8567672,26.4482328 C53.5985776,27.8301293 52.3403879,30.5136638 51.7128017,30.9746983 C51.4605603,28.5428017 49.8677586,27.034181 47.7300431,27.034181 C45.3403879,27.034181 43.6628017,29.2971121 43.6628017,31.2260345 C43.6628017,33.4062931 45.1714224,34.8316379 47.141681,34.8316379 C51.2934052,34.8316379 52.4671121,30.8905172 55.0664655,27.4107328 C55.8630172,31.1409483 57.7077586,34.8301293 60.8936638,34.8301293 C64.6670259,34.8301293 68.18875,31.601681 69.9906466,29.2965086 L69.6557328,28.7503879 C68.4820259,29.8827586 67.3499569,30.6373707 66.0501293,30.6373707 C63.7027155,30.6373707 62.0251293,25.5653879 60.7262069,19.4434052 C61.4805172,18.3964224 62.6964655,15.7548276 63.5352586,14.8330603 C64.1236207,15.9228879 65.3389655,17.9770259 68.1063793,17.9770259 L68.097931,17.9851724 Z"/>
</svg>
